<svg width="84" height="84" viewBox="0 0 84 84" fill="none" xmlns="http://www.w3.org/2000/svg">
<path d="M17.5355 63.1147C17.5355 62.4513 16.9977 61.9135 16.3343 61.9135C9.20352 61.9135 3.40234 56.1165 3.40234 48.9912C3.40234 43.9365 6.37853 39.3171 10.9843 37.2227C11.5883 36.9482 11.8552 36.236 11.5806 35.6321C11.3061 35.0281 10.5937 34.7611 9.98989 35.0358C4.52872 37.5192 1 42.9969 1 48.9912C1 57.4412 7.87887 64.3159 16.3343 64.3159C16.9977 64.3159 17.5355 63.7781 17.5355 63.1147Z" fill="#1B75BC" stroke="#1B75BC" stroke-width="0.5"/>
<path d="M26.1522 38.023C27.8842 28.3507 36.2904 21.3306 46.1404 21.3306C53.6727 21.3306 60.5492 25.4637 64.086 32.1172C64.3976 32.7029 65.1247 32.9254 65.7105 32.614C66.2962 32.3027 66.5187 31.5754 66.2073 30.9896C65.5347 29.7242 64.7539 28.5403 63.8799 27.4469V11.4353L66.7858 7.97272C67.1788 8.12007 67.604 8.20062 68.048 8.20062C70.035 8.20062 71.6515 6.58561 71.6515 4.60031C71.6515 2.61502 70.0349 1 68.048 1C66.0611 1 64.4445 2.61502 64.4445 4.60031C64.4445 5.26752 64.6271 5.89293 64.945 6.42914L61.7587 10.2258C61.5772 10.4422 61.4776 10.7156 61.4776 10.9979V24.8774C59.3686 22.9465 56.9149 21.4335 54.2464 20.4165V12.0327C55.6445 11.5373 56.6487 10.2026 56.6487 8.63801C56.6487 6.65272 55.0322 5.0377 53.0452 5.0377C51.0581 5.0377 49.4417 6.65272 49.4417 8.63801C49.4417 10.2026 50.4459 11.5373 51.844 12.0327V19.6513C50.0072 19.1768 48.0935 18.9282 46.1404 18.9282C45.146 18.9282 44.1645 18.9923 43.2007 19.1167V7.99498C44.5989 7.49962 45.6031 6.16488 45.6031 4.60031C45.6031 2.61502 43.9866 1 41.9995 1C40.0125 1 38.396 2.61502 38.396 4.60031C38.396 6.16488 39.4002 7.49962 40.7984 7.99498V19.5591C37.613 20.3248 34.6745 21.7619 32.155 23.7262V12.0327C33.5532 11.5373 34.5574 10.2026 34.5574 8.63801C34.5574 6.65272 32.9409 5.0377 30.9539 5.0377C28.9668 5.0377 27.3504 6.65272 27.3504 8.63801C27.3504 10.2026 28.3545 11.5373 29.7527 12.0327V25.891C27.1348 28.6121 25.1825 32.001 24.1794 35.8207C23.6184 35.485 23.0394 35.1874 22.4453 34.9286V10.9981C22.4453 10.7156 22.3456 10.4422 22.1642 10.226L18.978 6.4293C19.2959 5.89293 19.4785 5.26752 19.4785 4.60031C19.4785 2.61502 17.8621 1 15.875 1C13.8879 1 12.2715 2.61502 12.2715 4.60031C12.2715 6.58561 13.8879 8.20062 15.875 8.20062C16.3188 8.20062 16.7442 8.12007 17.137 7.97272L20.0429 11.4353V34.115C18.8437 33.8186 17.6013 33.6674 16.3337 33.6674C15.6703 33.6674 15.1325 34.2052 15.1325 34.8686C15.1325 35.5319 15.6703 36.0697 16.3337 36.0697C19.2231 36.0697 21.9553 37.0007 24.2353 38.762C24.4488 38.9269 24.7079 39.0126 24.9698 39.0126C25.1154 39.0126 25.2618 38.9862 25.4017 38.9322C25.7936 38.781 26.0781 38.4364 26.1522 38.023ZM68.048 3.40234C68.7104 3.40234 69.2492 3.93967 69.2492 4.60031C69.2492 5.26096 68.7104 5.79828 68.048 5.79828C67.3856 5.79828 66.8468 5.26096 66.8468 4.60031C66.8468 3.93967 67.3856 3.40234 68.048 3.40234ZM53.0452 7.43988C53.7076 7.43988 54.2464 7.97737 54.2464 8.63785C54.2464 9.29834 53.7076 9.83582 53.0452 9.83582C52.3828 9.83582 51.844 9.2985 51.844 8.63785C51.844 7.97721 52.3828 7.43988 53.0452 7.43988ZM41.9995 3.40234C42.6619 3.40234 43.2007 3.93967 43.2007 4.60031C43.2007 5.26096 42.6619 5.79828 41.9995 5.79828C41.3371 5.79828 40.7984 5.26096 40.7984 4.60031C40.7984 3.93967 41.3371 3.40234 41.9995 3.40234ZM30.9539 7.43988C31.6163 7.43988 32.155 7.97737 32.155 8.63785C32.155 9.29834 31.6163 9.83582 30.9539 9.83582C30.2915 9.83582 29.7527 9.2985 29.7527 8.63785C29.7527 7.97721 30.2915 7.43988 30.9539 7.43988ZM14.6738 4.60031C14.6738 3.93967 15.2126 3.40234 15.875 3.40234C16.5374 3.40234 17.0762 3.93967 17.0762 4.60031C17.0762 5.26096 16.5374 5.79828 15.875 5.79828C15.2126 5.79828 14.6738 5.2608 14.6738 4.60031Z" fill="#1B75BC" stroke="#1B75BC" stroke-width="0.5"/>
<path d="M71.4314 41.1938C70.5545 41.1938 69.691 41.2907 68.8489 41.4829C68.8388 39.8102 68.6455 38.1438 68.2746 36.5275C68.1261 35.8807 67.4815 35.477 66.8351 35.6255C66.1885 35.7739 65.7846 36.4184 65.9331 37.0649C66.274 38.5501 66.4469 40.0836 66.4469 41.6224C66.4469 42.0918 66.4302 42.5703 66.3974 43.0445C66.3689 43.4565 66.554 43.8543 66.8876 44.0977C67.2212 44.3413 67.6565 44.3961 68.0401 44.2435C69.1184 43.8141 70.2594 43.5963 71.4312 43.5963C76.4855 43.5963 80.5971 47.7049 80.5971 52.7553C80.5971 57.8057 76.4853 61.9143 71.4312 61.9143H67.492C66.8287 61.9143 66.2909 62.4521 66.2909 63.1155C66.2909 63.7788 66.8287 64.3166 67.492 64.3166H71.4312C77.8101 64.3166 82.9995 59.1303 82.9995 52.7553C82.9996 46.3803 77.8101 41.1938 71.4314 41.1938Z" fill="#1B75BC" stroke="#1B75BC" stroke-width="0.5"/>
<path d="M57.9386 61.9141H46.8066C46.1433 61.9141 45.6055 62.4519 45.6055 63.1152C45.6055 63.7786 46.1433 64.3164 46.8066 64.3164H51.844V76.0048C50.4459 76.5001 49.4417 77.8349 49.4417 79.3994C49.4417 81.3847 51.0581 82.9998 53.0452 82.9998C55.0323 82.9998 56.6487 81.3847 56.6487 79.3994C56.6487 77.8347 55.6445 76.5 54.2464 76.0048V64.3164H57.9386C58.602 64.3164 59.1398 63.7786 59.1398 63.1152C59.1398 62.4519 58.602 61.9141 57.9386 61.9141ZM53.0452 80.5974C52.3828 80.5974 51.844 80.0601 51.844 79.3994C51.844 78.7388 52.3828 78.2015 53.0452 78.2015C53.7076 78.2015 54.2464 78.739 54.2464 79.3994C54.2464 80.0599 53.7076 80.5974 53.0452 80.5974Z" fill="#1B75BC" stroke="#1B75BC" stroke-width="0.5"/>
<path d="M37.1897 61.9141H26.252C25.5886 61.9141 25.0508 62.4519 25.0508 63.1152C25.0508 63.7786 25.5886 64.3164 26.252 64.3164H29.7536V76.0048C28.3554 76.5001 27.3513 77.8349 27.3513 79.3994C27.3513 81.3847 28.9677 82.9998 30.9548 82.9998C32.9418 82.9998 34.5583 81.3847 34.5583 79.3994C34.5583 77.8347 33.5541 76.5 32.156 76.0048V64.3164H37.1897C37.853 64.3164 38.3908 63.7786 38.3908 63.1152C38.3908 62.4519 37.853 61.9141 37.1897 61.9141ZM30.9548 80.5974C30.2924 80.5974 29.7536 80.0601 29.7536 79.3994C29.7536 78.7388 30.2924 78.2015 30.9548 78.2015C31.6172 78.2015 32.156 78.739 32.156 79.3994C32.156 80.0599 31.6172 80.5974 30.9548 80.5974Z" fill="#1B75BC" stroke="#1B75BC" stroke-width="0.5"/>
<path d="M21.3204 51.5508C19.3334 51.5508 17.7169 53.1658 17.7169 55.1511C17.7169 56.7157 18.7211 58.0504 20.1193 58.5458V74.9634L15.0311 81.0261C14.6046 81.5343 14.6709 82.2918 15.1791 82.7183C15.4041 82.9071 15.6781 82.9994 15.9506 82.9994C16.2933 82.9994 16.6338 82.8535 16.8713 82.5703L22.2405 76.1726C22.422 75.9562 22.5216 75.6828 22.5216 75.4004V58.5456C23.9198 58.0502 24.924 56.7155 24.924 55.1509C24.924 53.1658 23.3075 51.5508 21.3204 51.5508ZM21.3204 56.3491C20.658 56.3491 20.1193 55.8117 20.1193 55.1511C20.1193 54.4905 20.658 53.9531 21.3204 53.9531C21.9829 53.9531 22.5216 54.4906 22.5216 55.1511C22.5216 55.8116 21.9829 56.3491 21.3204 56.3491Z" fill="#1B75BC" stroke="#1B75BC" stroke-width="0.5"/>
<path d="M42 51.5508C40.0129 51.5508 38.3965 53.1658 38.3965 55.1511C38.3965 56.7157 39.4007 58.0504 40.7988 58.5458V81.7984C40.7988 82.4617 41.3366 82.9995 42 82.9995C42.6634 82.9995 43.2012 82.4617 43.2012 81.7984V58.5458C44.5993 58.0504 45.6035 56.7157 45.6035 55.1511C45.6035 53.1658 43.9871 51.5508 42 51.5508ZM42 56.3491C41.3376 56.3491 40.7988 55.8117 40.7988 55.1511C40.7988 54.4905 41.3376 53.9531 42 53.9531C42.6624 53.9531 43.2012 54.4906 43.2012 55.1511C43.2012 55.8116 42.6624 56.3491 42 56.3491Z" fill="#1B75BC" stroke="#1B75BC" stroke-width="0.5"/>
<path d="M63.8809 74.9634V58.5458C65.279 58.0504 66.2832 56.7157 66.2832 55.1511C66.2832 53.1658 64.6667 51.5508 62.6797 51.5508C60.6926 51.5508 59.0762 53.1658 59.0762 55.1511C59.0762 56.7157 60.0804 58.0504 61.4785 58.5458V75.4006C61.4785 75.6831 61.5781 75.9565 61.7596 76.1727L67.1288 82.5705C67.3665 82.8536 67.7068 82.9995 68.0496 82.9995C68.322 82.9995 68.596 82.9073 68.821 82.7185C69.3292 82.292 69.3954 81.5343 68.969 81.0263L63.8809 74.9634ZM62.6797 53.9531C63.3421 53.9531 63.8809 54.4906 63.8809 55.1511C63.8809 55.8116 63.3421 56.3491 62.6797 56.3491C62.0173 56.3491 61.4785 55.8117 61.4785 55.1511C61.4785 54.4905 62.0173 53.9531 62.6797 53.9531Z" fill="#1B75BC" stroke="#1B75BC" stroke-width="0.5"/>
</svg>
