<svg width="87" height="87" viewBox="0 0 87 87" fill="none" xmlns="http://www.w3.org/2000/svg">
<g clip-path="url(#clip0)">
<path d="M81.9228 38.2579C82.8674 38.2137 83.7134 37.6983 84.1863 36.8795L86.6921 32.5394C87.3279 31.4502 86.9347 29.9977 85.8442 29.3752L56.1481 12.2301C55.5383 11.8781 54.759 12.0871 54.4073 12.6966C54.0554 13.3061 54.2642 14.0855 54.8737 14.4374L84.3685 31.4664L81.9789 35.6051C81.9422 35.6686 81.8766 35.7086 81.8035 35.712L75.0956 36.026C75.0542 36.0278 75.0149 36.0183 74.9799 35.9984L53.9344 24.0852C52.782 23.4329 51.3679 23.3573 50.1523 23.8829L45.4801 25.9035C44.988 26.1164 44.417 26.0833 43.9528 25.8153L27.0236 16.0413C26.6297 15.8139 26.3478 15.4465 26.2301 15.0073C26.1125 14.5681 26.1728 14.1093 26.4003 13.7152L32.3545 3.40215C32.8241 2.58926 33.8668 2.30923 34.6803 2.77889L49.7513 11.4801C50.361 11.832 51.1404 11.623 51.4921 11.0137C51.844 10.4042 51.6352 9.62477 51.0257 9.27286L35.9551 0.57147C34.9718 0.00377 33.826 -0.147288 32.729 0.146672C31.6322 0.440632 30.7153 1.1441 30.1476 2.12759L24.1934 12.4405C23.6256 13.424 23.4748 14.5698 23.7686 15.6666C24.0813 16.8336 24.8655 17.7947 25.9348 18.355L23.595 22.4083C23.0268 23.3918 22.8761 24.5374 23.1697 25.634C23.4635 26.7305 24.1669 27.6472 25.1504 28.2153L40.4999 37.0773L39.1326 39.4456C38.6641 40.2568 38.5397 41.202 38.782 42.107C39.0021 42.9283 39.5026 43.6248 40.1995 44.0971L31.3159 61.8566C30.7224 61.7436 30.1107 61.6821 29.4849 61.6821C25.4661 61.6821 22.0074 64.1216 20.5089 67.597H11.3885V60.8629C11.3885 58.1291 9.16425 55.9048 6.43042 55.9048H2.46773C1.10923 55.9048 0.00390625 57.0101 0.00390625 58.3686V84.5362C0.00390625 85.8947 1.10923 87 2.46773 87H6.43042C9.16425 87 11.3885 84.7758 11.3885 82.042V75.3079H20.5089C22.0074 78.7832 25.4661 81.2228 29.4849 81.2228C34.8723 81.2228 39.2552 76.8399 39.2552 71.4524C39.2552 69.5483 38.7057 67.7711 37.76 66.2672L41.4681 58.8544C41.783 58.2249 41.5279 57.4594 40.8984 57.1445C40.2688 56.8293 39.5033 57.0846 39.1885 57.7141L35.9682 64.1517C35.3058 63.5629 34.5639 63.062 33.7597 62.669L42.4054 45.3853L44.6949 46.7071L41.8514 52.3912C41.5366 53.0208 41.7916 53.7863 42.4212 54.1011C43.0404 54.4109 43.8126 54.1686 44.1311 53.5316L46.968 47.8607C47.5439 48.0041 48.1401 47.9983 48.7177 47.8435C49.6225 47.601 50.3788 47.0208 50.8473 46.2094L52.2146 43.8409L67.5638 52.7025C68.2317 53.0882 68.9615 53.2714 69.6825 53.2714C71.2497 53.2714 72.7847 52.3754 73.5249 50.8805L75.8931 52.2476C76.4439 52.5657 77.0461 52.717 77.6408 52.7168C78.8539 52.7168 80.0352 52.0877 80.6841 50.9639L83.9403 45.3239C84.4087 44.5126 84.5331 43.5675 84.2908 42.6625C84.0483 41.7577 83.4679 41.0014 82.6567 40.5329L80.2882 39.1656L80.7815 38.311L81.9228 38.2579ZM8.83971 82.042C8.83971 83.3704 7.75902 84.4512 6.43042 84.4512H2.55269V58.4536H6.43042C7.75885 58.4536 8.83971 59.5345 8.83971 60.8629V82.042ZM19.8046 72.7591H11.3885V70.1457H19.8044C19.747 70.5736 19.7145 71.0091 19.7145 71.4524C19.7145 71.8957 19.7472 72.3314 19.8046 72.7591ZM36.7065 71.4524C36.7065 75.4345 33.4669 78.674 29.4849 78.674C25.5028 78.674 22.2633 75.4345 22.2633 71.4524C22.2633 67.4704 25.5028 64.2309 29.4849 64.2309C33.4669 64.2309 36.7065 67.4705 36.7065 71.4524ZM48.6399 44.935C48.3818 45.3873 47.7799 45.5482 47.3307 45.2859L41.6907 42.0296C41.2379 41.7709 41.0771 41.1706 41.34 40.7203L42.7073 38.352L50.0074 42.5667L48.6399 44.935ZM71.9545 48.5025C71.9538 48.5038 71.9531 48.5052 71.9525 48.5065L71.1639 49.8725C70.694 50.6854 69.6512 50.9648 68.8382 50.4954L26.425 26.0084C25.6121 25.5389 25.3326 24.4959 25.8021 23.6829L28.1418 19.6294L42.6786 28.0223C43.8381 28.6916 45.2639 28.7738 46.4921 28.2425L51.1642 26.2218C51.6514 26.0114 52.2174 26.0417 52.679 26.3028L73.7247 38.2162C74.1782 38.473 74.6956 38.5965 75.2149 38.5715L77.7566 38.4526L76.9909 39.7786L71.9545 48.5025ZM81.382 42.7405C81.8334 42.9983 81.9959 43.5994 81.7327 44.0497L78.4765 49.6897C78.2121 50.1476 77.6244 50.305 77.1671 50.0406L74.7991 48.6734L79.0136 41.3733L81.382 42.7405ZM24.8121 71.4524C24.8121 74.0291 26.9084 76.1252 29.4849 76.1252C32.0614 76.1252 34.1577 74.0291 34.1577 71.4524C34.1577 68.8758 32.0614 66.7796 29.4849 66.7796C26.9084 66.7796 24.8121 68.8759 24.8121 71.4524ZM31.6089 71.4524C31.6089 72.6237 30.6561 73.5764 29.4849 73.5764C28.3136 73.5764 27.3609 72.6237 27.3609 71.4524C27.3609 70.2812 28.3136 69.3284 29.4849 69.3284C30.6561 69.3284 31.6089 70.2813 31.6089 71.4524Z" fill="#1B75BC"/>
</g>
<defs>
<clipPath id="clip0">
<rect width="87" height="87" fill="white"/>
</clipPath>
</defs>
</svg>
