<svg width="85" height="88" viewBox="0 0 85 88" fill="none" xmlns="http://www.w3.org/2000/svg">
<path d="M83.2138 54.5148C84.168 54.5148 84.9415 53.7451 84.9415 52.796V33.061C84.9415 32.1117 84.168 31.3423 83.2138 31.3423H50.4258V24.1075H54.4956C55.1129 24.1075 55.6831 23.7799 55.9917 23.2482C56.3004 22.7164 56.3004 22.0612 55.9917 21.5294L43.9962 0.859375C43.6876 0.327594 43.1173 0 42.5 0C41.8827 0 41.3124 0.327594 41.0039 0.859375L29.0083 21.5294C28.6996 22.0612 28.6996 22.7164 29.0083 23.2482C29.3169 23.7799 29.8872 24.1075 30.5045 24.1075H34.5743V31.3423H1.78624C0.832059 31.3423 0.0585938 32.1117 0.0585938 33.061V52.796C0.0585938 53.7451 0.832059 54.5148 1.78624 54.5148H5.2353V57.9523H1.78624C0.832059 57.9523 0.0585938 58.722 0.0585938 59.671V79.4061C0.0585938 80.3553 0.832059 81.1248 1.78624 81.1248H5.2353V86.2812C5.2353 87.2303 6.00877 88 6.96294 88H78.0371C78.9913 88 79.7647 87.2303 79.7647 86.2812V81.1248H83.2138C84.168 81.1248 84.9415 80.3553 84.9415 79.4061V59.671C84.9415 58.722 84.168 57.9523 83.2138 57.9523H79.7647V54.5148H83.2138ZM33.4968 20.67L42.5 5.15625L51.5033 20.67H48.6981C47.7439 20.67 46.9705 21.4397 46.9705 22.3888V37.1707H38.0296V22.3888C38.0296 21.4397 37.2561 20.67 36.3019 20.67H33.4968ZM56.5515 40.6082V45.2488H44.2277V40.6082H56.5515ZM76.3095 84.5625H8.69059V81.1248H76.3095V84.5625ZM81.4862 61.3898V77.6873H3.51388V61.3898H81.4862ZM8.69059 57.9523V54.5148H76.3095V57.9523H8.69059ZM3.51388 51.0773V34.7798H34.5743V38.8895C34.5743 39.8387 35.3478 40.6082 36.3019 40.6082H40.7724V41.2098H15.6732C14.719 41.2098 13.9456 41.9794 13.9456 42.9285C13.9456 43.8778 14.719 44.6473 15.6732 44.6473H40.7724V46.9676C40.7724 47.9167 41.5458 48.6863 42.5 48.6863H74.0006C74.9548 48.6863 75.7283 47.9167 75.7283 46.9676V38.8895C75.7283 37.9404 74.9548 37.1707 74.0006 37.1707H50.4258V34.7798H81.4862V51.0773H3.51388ZM60.0067 45.2488V40.6082H72.273V45.2488H60.0067Z" fill="#1B75BC"/>
<path d="M74.0004 63.7803H58.2789H42.4998C41.5456 63.7803 40.7721 64.5499 40.7721 65.499V67.8193H15.673C14.7188 67.8193 13.9453 68.589 13.9453 69.5381C13.9453 70.4873 14.7188 71.2568 15.673 71.2568H40.7721V73.5771C40.7721 74.5264 41.5456 75.2959 42.4998 75.2959H58.2789H74.0004C74.9546 75.2959 75.7281 74.5264 75.7281 73.5771V65.499C75.7281 64.5498 74.9546 63.7803 74.0004 63.7803ZM56.5512 71.8584H44.2274V67.2178H56.5512V71.8584ZM72.2728 71.8584H60.0065V67.2178H72.2728V71.8584Z" fill="#1B75BC"/>
<path d="M10.2838 42.5924C10.2613 42.4824 10.2268 42.3741 10.1836 42.271C10.1404 42.1679 10.0868 42.0682 10.0246 41.9738C9.96244 41.881 9.88988 41.7914 9.81041 41.7124C9.73094 41.6333 9.64283 41.5611 9.54781 41.4994C9.45452 41.4376 9.35431 41.3843 9.24893 41.3413C9.14527 41.2983 9.03643 41.2655 8.92586 41.2433C8.36438 41.1316 7.76834 41.3138 7.36753 41.7124C7.28806 41.7914 7.21549 41.8808 7.15157 41.9738C7.08938 42.0683 7.03755 42.168 6.99436 42.271C6.95117 42.3741 6.91661 42.4824 6.89588 42.5924C6.87342 42.7041 6.86133 42.8158 6.86133 42.9293C6.86133 43.041 6.87342 43.1527 6.89588 43.2644C6.91661 43.3744 6.95117 43.4829 6.99436 43.5858C7.03755 43.6888 7.08938 43.7886 7.15157 43.8814C7.21549 43.976 7.28806 44.0636 7.36753 44.1429C7.447 44.2236 7.53511 44.2958 7.63013 44.3577C7.72342 44.4194 7.82362 44.4729 7.92901 44.5158C8.03267 44.5588 8.14151 44.5915 8.25208 44.6136C8.36265 44.6361 8.47667 44.648 8.58897 44.648C8.70127 44.648 8.81529 44.6361 8.92586 44.6136C9.03643 44.5913 9.14527 44.5588 9.24893 44.5158C9.35431 44.4729 9.45452 44.4196 9.54781 44.3577C9.64283 44.2958 9.73094 44.2236 9.81041 44.1429C9.88988 44.0638 9.96244 43.976 10.0246 43.8814C10.0868 43.7886 10.1404 43.6889 10.1836 43.5858C10.2268 43.4827 10.2613 43.3744 10.2838 43.2644C10.3062 43.1527 10.3166 43.041 10.3166 42.9293C10.3166 42.8158 10.3062 42.7043 10.2838 42.5924Z" fill="#1B75BC"/>
<path d="M10.2821 69.2022C10.2613 69.094 10.2268 68.9857 10.1836 68.8808C10.1404 68.7777 10.0868 68.678 10.0246 68.5852C9.96244 68.4907 9.88988 68.4029 9.81041 68.3238C9.73094 68.243 9.64283 68.1725 9.54781 68.1089C9.45452 68.0472 9.35431 67.9938 9.24893 67.9508C9.14527 67.9079 9.03643 67.8754 8.92586 67.8529C8.70299 67.8082 8.47494 67.8082 8.25208 67.8529C8.14151 67.8754 8.03267 67.9079 7.92728 67.9508C7.82362 67.9938 7.72342 68.0472 7.63013 68.1089C7.53511 68.1725 7.447 68.243 7.36753 68.3238C7.28806 68.4029 7.21549 68.4907 7.15157 68.5852C7.08938 68.678 7.03755 68.7777 6.99436 68.8808C6.95117 68.9857 6.91661 69.094 6.89588 69.2022C6.87342 69.3138 6.86133 69.4274 6.86133 69.5391C6.86133 69.6508 6.87342 69.7643 6.89588 69.8743C6.91661 69.9843 6.95117 70.0926 6.99436 70.1957C7.03755 70.3004 7.0911 70.4 7.1533 70.4929C7.21549 70.5874 7.28806 70.6752 7.36753 70.7543C7.447 70.8333 7.53511 70.9055 7.63013 70.9672C7.72342 71.0291 7.82362 71.0824 7.92728 71.1254C8.03267 71.1683 8.14151 71.201 8.25208 71.2233C8.36265 71.2457 8.47667 71.2577 8.58897 71.2577C8.70127 71.2577 8.81529 71.2457 8.92586 71.2233C9.03643 71.201 9.14527 71.1683 9.24893 71.1254C9.35431 71.0824 9.45452 71.0291 9.54781 70.9672C9.64283 70.9055 9.73094 70.8333 9.81041 70.7543C9.88988 70.6752 9.96244 70.5874 10.0246 70.4929C10.0868 70.4 10.1404 70.3004 10.1836 70.1957C10.2268 70.0924 10.2613 69.9843 10.2821 69.8743C10.3045 69.7641 10.3166 69.6508 10.3166 69.5391C10.3166 69.4274 10.3045 69.3138 10.2821 69.2022Z" fill="#1B75BC"/>
</svg>
