<svg width="80" height="93" viewBox="0 0 80 93" fill="none" xmlns="http://www.w3.org/2000/svg">
<path d="M76.7128 35.0813H72.6879L71.9637 28.5594C71.7829 26.9356 70.414 25.7109 68.7793 25.7109H65.2009C63.5638 25.7109 62.1956 26.9367 62.0184 28.5598L61.2944 35.0813H56.8522V31.506C56.8522 29.7416 55.4152 28.3059 53.6489 28.3059H26.3531C24.5868 28.3059 23.1498 29.7414 23.1498 31.506V35.0813H18.7076L17.984 28.562C17.806 26.9367 16.4378 25.7109 14.8011 25.7109H11.2227C9.58816 25.7109 8.21906 26.9356 8.03833 28.5596L7.31415 35.0811H3.28922C1.52285 35.0811 0.0859375 36.5166 0.0859375 38.2812V42.3693C0.0859375 44.1339 1.52285 45.5694 3.28922 45.5694H3.41177V89.7995C3.41177 91.5643 4.84887 93 6.61542 93H73.3866C75.1531 93 76.5902 91.5643 76.5902 89.7995V64.0809C76.5902 63.3285 75.9799 62.7185 75.2266 62.7185C74.4733 62.7185 73.863 63.3285 73.863 64.0809V82.0868H62.8789V53.3718C62.8789 51.6072 61.442 50.1717 59.6756 50.1717H50.5483C49.795 50.1717 49.1847 50.7816 49.1847 51.534C49.1847 52.2863 49.795 52.8963 50.5483 52.8963H59.6756C59.938 52.8963 60.1516 53.1095 60.1516 53.3718V69.7615H19.8504V53.3718C19.8504 53.1095 20.064 52.8963 20.3264 52.8963H44.6099C45.3632 52.8963 45.9736 52.2863 45.9736 51.534C45.9736 50.7816 45.3632 50.1717 44.6099 50.1717H20.3264C18.56 50.1717 17.1231 51.6072 17.1231 53.3718V82.087H6.13905V45.5696H14.9138C15.6671 45.5696 16.2775 44.9597 16.2775 44.2073C16.2775 43.4549 15.6671 42.845 14.9138 42.845H3.28922C3.02686 42.845 2.81322 42.6317 2.81322 42.3694V38.2814C2.81322 38.0193 3.02686 37.8059 3.28922 37.8059H76.7128C76.9752 37.8059 77.1888 38.0191 77.1888 38.2814V42.3694C77.1888 42.6317 76.9752 42.845 76.7128 42.845H20.8522C20.0989 42.845 19.4886 43.4549 19.4886 44.2073C19.4886 44.9597 20.0989 45.5696 20.8522 45.5696H73.8631V58.1486C73.8631 58.901 74.4735 59.5109 75.2268 59.5109C75.98 59.5109 76.5904 58.901 76.5904 58.1486V45.5696H76.713C78.4793 45.5696 79.9163 44.1341 79.9163 42.3694V38.2814C79.9161 36.517 78.4792 35.0813 76.7128 35.0813ZM60.1516 72.4863V74.2891C60.1516 74.5514 59.938 74.7646 59.6756 74.7646H20.3264C20.064 74.7646 19.8504 74.5514 19.8504 74.2891V72.4863H60.1516ZM19.8504 77.4498C20.0062 77.4733 20.1642 77.4893 20.3264 77.4893H59.6756C59.8378 77.4893 59.9958 77.4733 60.1516 77.4498V82.087H19.8504V77.4498ZM12.2794 84.8116V86.2215C12.2794 86.9738 12.8898 87.5838 13.6431 87.5838C14.3964 87.5838 15.0067 86.9738 15.0067 86.2215V84.8116H17.1231V86.2215C17.1231 86.9738 17.7335 87.5838 18.4867 87.5838C19.24 87.5838 19.8504 86.9738 19.8504 86.2215V84.8116H21.9666V86.2215C21.9666 86.9738 22.5769 87.5838 23.3302 87.5838C24.0835 87.5838 24.6939 86.9738 24.6939 86.2215V84.8116H55.3083V86.2215C55.3083 86.9738 55.9187 87.5838 56.672 87.5838C57.4253 87.5838 58.0356 86.9738 58.0356 86.2215V84.8116H60.1518V86.2215C60.1518 86.9738 60.7622 87.5838 61.5155 87.5838C62.2687 87.5838 62.8791 86.9738 62.8791 86.2215V84.8116H64.9955V86.2215C64.9955 86.9738 65.6058 87.5838 66.3591 87.5838C67.1124 87.5838 67.7227 86.9738 67.7227 86.2215V84.8116H73.8631V89.7995C73.8631 90.0619 73.6493 90.2754 73.3868 90.2754H6.61542C6.35287 90.2754 6.13905 90.0619 6.13905 89.7995V84.8116H12.2794ZM64.7295 28.8579C64.7558 28.6172 64.9586 28.4357 65.2011 28.4357H68.7795C69.0226 28.4357 69.2262 28.6183 69.2531 28.8602L69.9438 35.0815H64.0386L64.7295 28.8579ZM25.8769 31.5062C25.8769 31.2441 26.0906 31.0307 26.353 31.0307H53.6489C53.9112 31.0307 54.1249 31.2439 54.1249 31.5062V35.0815H25.8769V31.5062ZM10.7489 28.8606C10.7758 28.6185 10.9796 28.4357 11.2225 28.4357H14.8009C15.0435 28.4357 15.2462 28.6174 15.2729 28.8602L15.9635 35.0815H10.058L10.7489 28.8606Z" fill="#1B75BC"/>
<path d="M23.0703 56.9102V66.053C23.0703 66.8054 23.6807 67.4153 24.434 67.4153C25.1872 67.4153 25.7976 66.8054 25.7976 66.053V56.9102C25.7976 56.1578 25.1872 55.5479 24.434 55.5479C23.6807 55.5479 23.0703 56.1576 23.0703 56.9102Z" fill="#1B75BC"/>
<path d="M29.6839 62.9697H35.0467C35.7999 62.9697 36.4103 62.3598 36.4103 61.6074C36.4103 60.8551 35.7999 60.2451 35.0467 60.2451H29.6839C28.9307 60.2451 28.3203 60.8551 28.3203 61.6074C28.3203 62.3598 28.9307 62.9697 29.6839 62.9697Z" fill="#1B75BC"/>
<path d="M29.6839 67.415H45.4474C46.2007 67.415 46.811 66.8051 46.811 66.0527C46.811 65.3004 46.2007 64.6904 45.4474 64.6904H29.6839C28.9307 64.6904 28.3203 65.3004 28.3203 66.0527C28.3203 66.8051 28.9307 67.415 29.6839 67.415Z" fill="#1B75BC"/>
<path d="M57.4831 56.7279V56.709C57.4831 55.9566 56.8728 55.3467 56.1195 55.3467C55.3662 55.3467 54.7559 55.9566 54.7559 56.709V56.7279C54.7559 57.4802 55.3662 58.0902 56.1195 58.0902C56.8728 58.0902 57.4831 57.4802 57.4831 56.7279Z" fill="#1B75BC"/>
<path d="M53.1921 56.7279V56.709C53.1921 55.9566 52.5818 55.3467 51.8285 55.3467C51.0752 55.3467 50.4648 55.9566 50.4648 56.709V56.7279C50.4648 57.4802 51.0752 58.0902 51.8285 58.0902C52.5818 58.0902 53.1921 57.4802 53.1921 56.7279Z" fill="#1B75BC"/>
<path d="M48.8992 56.7279V56.709C48.8992 55.9566 48.2888 55.3467 47.5355 55.3467C46.7822 55.3467 46.1719 55.9566 46.1719 56.709V56.7279C46.1719 57.4802 46.7822 58.0902 47.5355 58.0902C48.2888 58.0902 48.8992 57.4802 48.8992 56.7279Z" fill="#1B75BC"/>
<path d="M40.0005 25.0624C46.917 25.0624 52.544 19.441 52.544 12.5312C52.544 5.62141 46.917 0 40.0005 0C33.0839 0 27.457 5.62141 27.457 12.5312C27.457 19.441 33.0839 25.0624 40.0005 25.0624ZM40.0005 2.72461C45.4132 2.72461 49.8167 7.12376 49.8167 12.5312C49.8167 17.9386 45.413 22.3378 40.0005 22.3378C34.5879 22.3378 30.1843 17.9386 30.1843 12.5312C30.1843 7.12376 34.5878 2.72461 40.0005 2.72461Z" fill="#1B75BC"/>
<path d="M37.1096 17.1547C37.3789 17.4551 37.7516 17.6081 38.126 17.6081C38.4498 17.6081 38.7749 17.4934 39.0352 17.2606L42.6856 13.9943C43.0611 13.6583 43.2203 13.1428 43.0998 12.6538C42.9792 12.1648 42.5985 11.7821 42.1098 11.6588L41.0447 11.39L42.7856 9.8322C43.3465 9.33015 43.3942 8.46899 42.8916 7.90845C42.3891 7.34827 41.5271 7.3005 40.966 7.80255L37.3156 11.0686C36.9401 11.4047 36.7809 11.9202 36.9014 12.4091C37.022 12.8981 37.4027 13.2808 37.8914 13.4042L38.9565 13.673L37.2156 15.2307C36.6547 15.733 36.607 16.5941 37.1096 17.1547Z" fill="#1B75BC"/>
<path d="M12.7148 22.7823C17.2455 22.7823 20.9313 19.0999 20.9313 14.5738C20.9313 10.0476 17.2455 6.36523 12.7148 6.36523C8.18405 6.36523 4.49805 10.0475 4.49805 14.5738C4.49805 19.1001 8.18405 22.7823 12.7148 22.7823ZM12.7148 9.08984C15.7415 9.08984 18.204 11.5498 18.204 14.5738C18.204 17.5977 15.7415 20.0577 12.7148 20.0577C9.68805 20.0577 7.22532 17.5975 7.22532 14.5738C7.22532 11.55 9.68786 9.08984 12.7148 9.08984Z" fill="#1B75BC"/>
<path d="M10.7972 15.9357H11.3538V16.4917C11.3538 17.2441 11.9641 17.854 12.7174 17.854C13.4707 17.854 14.081 17.2441 14.081 16.4917V15.9357H14.6376C15.3909 15.9357 16.0012 15.3258 16.0012 14.5734C16.0012 13.821 15.3909 13.2111 14.6376 13.2111H14.081V12.6553C14.081 11.9029 13.4707 11.293 12.7174 11.293C11.9641 11.293 11.3538 11.9029 11.3538 12.6553V13.2111H10.7972C10.044 13.2111 9.43359 13.821 9.43359 14.5734C9.43359 15.3258 10.044 15.9357 10.7972 15.9357Z" fill="#1B75BC"/>
<path d="M67.2847 22.7823C71.8154 22.7823 75.5013 19.0999 75.5013 14.5738C75.5013 10.0476 71.8154 6.36523 67.2847 6.36523C62.7542 6.36523 59.0684 10.0475 59.0684 14.5738C59.0684 19.1001 62.7544 22.7823 67.2847 22.7823ZM67.2847 9.08984C70.3115 9.08984 72.774 11.5498 72.774 14.5738C72.774 17.5977 70.3115 20.0577 67.2847 20.0577C64.258 20.0577 61.7956 17.5975 61.7956 14.5738C61.7956 11.55 64.258 9.08984 67.2847 9.08984Z" fill="#1B75BC"/>
<path d="M65.3656 15.9355H69.2058C69.959 15.9355 70.5694 15.3256 70.5694 14.5732C70.5694 13.8209 69.959 13.2109 69.2058 13.2109H65.3656C64.6123 13.2109 64.002 13.8209 64.002 14.5732C64.002 15.3256 64.6123 15.9355 65.3656 15.9355Z" fill="#1B75BC"/>
</svg>
