<svg width="79" height="79" viewBox="0 0 79 79" fill="none" xmlns="http://www.w3.org/2000/svg">
<path d="M59.8267 8.10645H59.8179C58.9659 8.10645 58.2793 8.79589 58.2793 9.64641C58.2793 10.4969 58.9746 11.1864 59.8266 11.1864C60.6786 11.1864 61.3695 10.4969 61.3695 9.64641C61.3695 8.79589 60.6789 8.10645 59.8267 8.10645Z" fill="#1B75BC"/>
<path d="M68.1529 8.10645H68.1441C67.2921 8.10645 66.6055 8.79589 66.6055 9.64641C66.6055 10.4969 67.3007 11.1864 68.1528 11.1864C69.0048 11.1864 69.6957 10.4969 69.6957 9.64641C69.6957 8.79589 69.0049 8.10645 68.1529 8.10645Z" fill="#1B75BC"/>
<path d="M51.4986 8.10645H51.4898C50.6378 8.10645 49.9512 8.79589 49.9512 9.64641C49.9512 10.4969 50.6464 11.1864 51.4985 11.1864C52.3505 11.1864 53.0414 10.4969 53.0414 9.64641C53.0414 8.79589 52.3506 8.10645 51.4986 8.10645Z" fill="#1B75BC"/>
<path d="M34.0267 8.10645H10.8418C9.98961 8.10645 9.29883 8.79589 9.29883 9.64641C9.29883 10.4969 9.98961 11.1864 10.8418 11.1864H34.0267C34.8789 11.1864 35.5697 10.4969 35.5697 9.64641C35.5697 8.79589 34.8789 8.10645 34.0267 8.10645Z" fill="#1B75BC"/>
<path d="M74.0499 0H4.95014C2.22064 0 0 2.21631 0 4.9405V61.9626C0 64.6868 2.22064 66.9031 4.95014 66.9031H13.2129V73.107C13.2129 76.2716 15.7926 78.8463 18.9634 78.8463H60.0366C63.2074 78.8463 65.7871 76.2716 65.7871 73.107V66.9031H74.05C76.7794 66.9031 79 64.6868 79 61.9626V4.9405C78.9998 2.21631 76.7792 0 74.0499 0V0ZM75.9139 61.9625C75.9139 62.9884 75.0776 63.8231 74.0499 63.8231H65.787V32.1136C65.787 28.949 63.2073 26.3743 60.0365 26.3743H46.4212C45.5692 26.3743 44.8782 27.0637 44.8782 27.9143C44.8782 28.7648 45.5692 29.4542 46.4212 29.4542H60.0365C61.5055 29.4542 62.701 30.6472 62.701 32.1136V73.1069C62.701 74.5732 61.5057 75.7662 60.0365 75.7662H18.9634C17.4941 75.7662 16.2988 74.5732 16.2988 73.1069V32.1136C16.2988 30.6472 17.4941 29.4542 18.9634 29.4542H32.5611C33.4132 29.4542 34.104 28.7648 34.104 27.9143C34.104 27.0637 33.4132 26.3743 32.5611 26.3743H18.9634C15.7926 26.3743 13.2129 28.949 13.2129 32.1136V63.8231H4.95014C3.92222 63.8231 3.08593 62.9884 3.08593 61.9625V19.2965H75.9139V61.9625ZM75.9139 16.2166H3.08593V4.9405C3.08593 3.91458 3.92222 3.07992 4.95014 3.07992H74.0499C75.0776 3.07992 75.9139 3.91458 75.9139 4.9405V16.2166Z" fill="#1B75BC"/>
<path d="M21.4512 42.9908C22.3033 42.9908 22.9941 42.3014 22.9941 41.4509V36.1375H28.3178C29.17 36.1375 29.8608 35.4481 29.8608 34.5976C29.8608 33.7471 29.17 33.0576 28.3178 33.0576H21.4512C20.599 33.0576 19.9082 33.7471 19.9082 34.5976V41.4509C19.9082 42.3012 20.599 42.9908 21.4512 42.9908Z" fill="#1B75BC"/>
<path d="M50.6758 36.1375H56.004V41.4509C56.004 42.3014 56.6949 42.9908 57.5469 42.9908C58.3989 42.9908 59.0899 42.3014 59.0899 41.4509V34.5976C59.0899 33.7471 58.3989 33.0576 57.5469 33.0576H50.6758C49.8238 33.0576 49.1328 33.7471 49.1328 34.5976C49.1328 35.4481 49.8236 36.1375 50.6758 36.1375Z" fill="#1B75BC"/>
<path d="M28.3178 69.0833H22.9941V63.7655C22.9941 62.915 22.3033 62.2256 21.4512 62.2256C20.599 62.2256 19.9082 62.915 19.9082 63.7655V70.6233C19.9082 71.4738 20.599 72.1633 21.4512 72.1633H28.3178C29.17 72.1633 29.8608 71.4738 29.8608 70.6233C29.8608 69.7728 29.17 69.0833 28.3178 69.0833Z" fill="#1B75BC"/>
<path d="M57.5469 62.2256C56.6949 62.2256 56.004 62.915 56.004 63.7655V69.0833H50.6758C49.8238 69.0833 49.1328 69.7728 49.1328 70.6233C49.1328 71.4738 49.8238 72.1633 50.6758 72.1633H57.5469C58.3989 72.1633 59.0899 71.4738 59.0899 70.6233V63.7655C59.0899 62.915 58.3989 62.2256 57.5469 62.2256Z" fill="#1B75BC"/>
<path d="M34.0098 52.6082C34.0098 55.6308 36.4717 58.09 39.4978 58.09C42.5262 58.09 44.9901 55.6308 44.9901 52.6082C44.9901 49.588 42.5262 47.1309 39.4978 47.1309C36.4717 47.1309 34.0098 49.5879 34.0098 52.6082ZM41.9042 52.6082C41.9042 53.9326 40.8247 55.0101 39.4978 55.0101C38.1733 55.0101 37.0957 53.9326 37.0957 52.6082C37.0957 51.2863 38.1733 50.2108 39.4978 50.2108C40.8247 50.2108 41.9042 51.2863 41.9042 52.6082Z" fill="#1B75BC"/>
<path d="M25.86 45.2507C23.1145 47.1408 19.9082 50.2018 19.9082 52.6077C19.9082 55.0155 23.1145 58.0767 25.8602 59.9665C28.2739 61.6278 33.2549 64.4146 39.4969 64.4146C45.739 64.4146 50.7214 61.6278 53.1357 59.9667C55.8825 58.0768 59.0901 55.0155 59.0901 52.6077C59.0901 50.2018 55.8826 47.1408 53.1358 45.2505C50.7211 43.5887 45.7382 40.8008 39.4969 40.8008C33.2556 40.8008 28.274 43.5887 25.86 45.2507ZM22.9958 52.6078C23.0716 52.1327 24.1901 50.2711 27.0818 48.1621C26.5747 49.5724 26.3067 51.0739 26.3067 52.6077C26.3067 54.1418 26.575 55.6443 27.0828 57.0557C24.1887 54.9455 23.071 53.0829 22.9958 52.6078ZM51.9116 48.1599C54.8064 50.2698 55.9263 52.1323 56.0023 52.6078C55.9269 53.0832 54.8078 54.9469 51.9104 57.0578C52.4185 55.6455 52.6868 54.1422 52.6868 52.6075C52.687 51.0732 52.4188 49.571 51.9116 48.1599ZM49.601 52.6077C49.601 55.4531 48.3963 58.1565 46.2914 60.072C44.3431 60.7923 42.0348 61.3345 39.4969 61.3345C36.9615 61.3345 34.6556 60.7932 32.7088 60.074C30.5997 58.1595 29.3928 55.4552 29.3928 52.6075C29.3928 49.7554 30.6022 47.0501 32.7151 45.1395C34.6607 44.4211 36.9645 43.8805 39.4971 43.8805C42.032 43.8805 44.3381 44.422 46.2852 45.1415C48.394 47.0535 49.601 49.7578 49.601 52.6077Z" fill="#1B75BC"/>
<path d="M39.4941 29.4539H39.4985C40.3506 29.4539 41.0393 28.7645 41.0393 27.914C41.0393 27.0635 40.3463 26.374 39.4941 26.374C38.642 26.374 37.9512 27.0635 37.9512 27.914C37.9512 28.7645 38.642 29.4539 39.4941 29.4539Z" fill="#1B75BC"/>
</svg>
