<svg width="87" height="80" viewBox="0 0 87 80" fill="none" xmlns="http://www.w3.org/2000/svg">
<g clip-path="url(#clip0)">
<path d="M56.1875 58.0989C55.187 58.0989 54.375 57.2855 54.375 56.2833V47.2053C54.375 46.203 55.187 45.3896 56.1875 45.3896C57.188 45.3896 58 46.203 58 47.2053V56.2833C58 57.2855 57.188 58.0989 56.1875 58.0989Z" fill="#1B75BC"/>
<path d="M59.8125 79.8862H5.4375C2.43963 79.8862 0 77.4424 0 74.4394V59.9146C0 56.9116 2.43963 54.4678 5.4375 54.4678H59.8125C62.8104 54.4678 65.25 56.9116 65.25 59.9146V74.4394C65.25 77.4424 62.8104 79.8862 59.8125 79.8862ZM5.4375 58.099C4.437 58.099 3.625 58.9124 3.625 59.9146V74.4394C3.625 75.4416 4.437 76.255 5.4375 76.255H59.8125C60.813 76.255 61.625 75.4416 61.625 74.4394V59.9146C61.625 58.9124 60.813 58.099 59.8125 58.099H5.4375Z" fill="#1B75BC"/>
<path d="M59.8125 49.021H5.4375C2.43963 49.021 0 46.5772 0 43.5742V29.0493C0 26.0463 2.43963 23.6025 5.4375 23.6025H41.8688C42.8693 23.6025 43.6813 24.4159 43.6813 25.4181C43.6813 26.4204 42.8693 27.2337 41.8688 27.2337H5.4375C4.437 27.2337 3.625 28.0471 3.625 29.0493V43.5742C3.625 44.5764 4.437 45.3898 5.4375 45.3898H59.8125C60.4505 45.3898 61.0704 45.023 61.3894 44.4602C61.8824 43.5887 62.9844 43.2837 63.8616 43.7775C64.7316 44.2714 65.0397 45.3789 64.5431 46.254C63.5753 47.9607 61.7627 49.021 59.8125 49.021Z" fill="#1B75BC"/>
<path d="M9.0625 58.0989C8.062 58.0989 7.25 57.2855 7.25 56.2833V47.2053C7.25 46.203 8.062 45.3896 9.0625 45.3896C10.063 45.3896 10.875 46.203 10.875 47.2053V56.2833C10.875 57.2855 10.063 58.0989 9.0625 58.0989Z" fill="#1B75BC"/>
<path d="M23.5625 38.1273H12.6875C11.687 38.1273 10.875 37.3139 10.875 36.3117C10.875 35.3095 11.687 34.4961 12.6875 34.4961H23.5625C24.563 34.4961 25.375 35.3095 25.375 36.3117C25.375 37.3139 24.563 38.1273 23.5625 38.1273Z" fill="#1B75BC"/>
<path d="M23.5625 68.9925H12.6875C11.687 68.9925 10.875 68.1792 10.875 67.1769C10.875 66.1747 11.687 65.3613 12.6875 65.3613H23.5625C24.563 65.3613 25.375 66.1747 25.375 67.1769C25.375 68.1792 24.563 68.9925 23.5625 68.9925Z" fill="#1B75BC"/>
<path d="M85.1875 36.3121C84.187 36.3121 83.375 35.4987 83.375 34.4965C83.375 17.477 69.5529 3.63121 52.5625 3.63121C51.562 3.63121 50.75 2.81782 50.75 1.8156C50.75 0.81339 51.562 0 52.5625 0C71.5503 0 87 15.4762 87 34.4965C87 35.4987 86.188 36.3121 85.1875 36.3121Z" fill="#1B75BC"/>
<path d="M74.3125 36.312C73.312 36.312 72.5 35.4986 72.5 34.4964C72.5 23.4829 63.5571 14.5248 52.5625 14.5248C51.562 14.5248 50.75 13.7114 50.75 12.7092C50.75 11.7069 51.562 10.8936 52.5625 10.8936C65.5545 10.8936 76.125 21.4821 76.125 34.4964C76.125 35.4986 75.313 36.312 74.3125 36.312Z" fill="#1B75BC"/>
<path d="M63.4375 36.3119C62.437 36.3119 61.625 35.4985 61.625 34.4963C61.625 29.4925 57.5578 25.4183 52.5625 25.4183C51.562 25.4183 50.75 24.6049 50.75 23.6027C50.75 22.6005 51.562 21.7871 52.5625 21.7871C59.5588 21.7871 65.25 27.4881 65.25 34.4963C65.25 35.4985 64.438 36.3119 63.4375 36.3119Z" fill="#1B75BC"/>
</g>
<defs>
<clipPath id="clip0">
<rect width="87" height="80" fill="white"/>
</clipPath>
</defs>
</svg>
