<svg width="86" height="55" viewBox="0 0 86 55" fill="none" xmlns="http://www.w3.org/2000/svg">
<path d="M84.7401 16.9247C85.4362 16.9247 85.9998 16.3527 85.9998 15.6476V13.9788C85.9998 12.2727 85.1488 10.7136 83.7231 9.80763C82.2973 8.9017 80.5422 8.80459 79.0272 9.54822L66.1828 15.8532V12.3086C66.1828 5.52141 60.7363 0 54.0412 0H12.1416C5.44651 0 0 5.52207 0 12.3086V42.6314C0 47.8562 3.2662 52.5255 8.1281 54.2509C8.78488 54.4851 9.50334 54.1339 9.73298 53.4681C9.96328 52.8022 9.6175 52.0739 8.96072 51.8404C5.10795 50.4729 2.51953 46.772 2.51953 42.6314V12.3086C2.51953 6.93019 6.83618 2.55417 12.1416 2.55417H54.0412C59.3467 2.55417 63.6633 6.93019 63.6633 12.3086V42.6314C63.6633 48.0105 59.3467 52.3859 54.0412 52.3859H14.6644C13.9683 52.3859 13.4047 52.9579 13.4047 53.6629C13.4047 54.3687 13.9683 54.94 14.6644 54.94H54.0412C60.7363 54.94 66.1828 49.4186 66.1828 42.6314V39.0869L79.0278 45.3925C79.703 45.7237 80.426 45.8887 81.1471 45.8887C82.0421 45.8887 82.9331 45.6346 83.7231 45.1324C85.1488 44.2271 85.9998 42.6674 85.9998 40.9619V21.7437C85.9998 21.0387 85.4362 20.4667 84.7401 20.4667C84.0446 20.4667 83.4803 21.0387 83.4803 21.7437V40.9619C83.4803 41.7947 83.0814 42.5263 82.3852 42.9687C81.6891 43.411 80.865 43.4562 80.1255 43.0937L78.4531 42.2723V12.6684L80.1255 11.847C80.865 11.4838 81.6884 11.529 82.3852 11.9714C83.0814 12.4144 83.481 13.146 83.481 13.9788V15.6476C83.4803 16.3527 84.0439 16.9247 84.7401 16.9247ZM75.9329 41.0357L66.1828 36.2493V18.6914L75.9329 13.905V41.0357ZM59.8696 42.6314V12.3093C59.8696 9.05069 57.2549 6.40007 54.0412 6.40007H12.1416C8.92792 6.40007 6.31325 9.05069 6.31325 12.3093V42.6314C6.31325 45.89 8.92792 48.5406 12.1416 48.5406H54.0412C57.2549 48.5406 59.8696 45.89 59.8696 42.6314ZM8.83278 42.6314V12.3093C8.83278 10.4595 10.3169 8.95424 12.1416 8.95424H54.0412C55.8659 8.95424 57.3501 10.4595 57.3501 12.3093V42.6314C57.3501 44.4812 55.8659 45.9865 54.0412 45.9865H12.1416C10.3169 45.9865 8.83278 44.4812 8.83278 42.6314ZM43.3641 29.7315C41.8359 28.1831 39.3512 28.1831 37.8237 29.7315L36.2464 31.3305C35.9977 31.582 35.6159 31.6259 35.318 31.437C32.5104 29.653 30.0965 27.206 28.3368 24.3598C28.1505 24.0578 28.1931 23.6707 28.4418 23.4193L30.0191 21.8202C31.5466 20.2711 31.5466 17.7515 30.0191 16.203L26.7149 12.8534C25.9747 12.1031 24.9906 11.69 23.9447 11.69C22.8982 11.69 21.914 12.1031 21.1745 12.8534L18.9903 15.0676C16.5009 17.5912 16.0679 21.4664 17.9372 24.4908C22.2853 31.5241 28.2508 37.5723 35.1894 41.9796C36.4282 42.7665 37.8106 43.1509 39.1832 43.1509C41.1162 43.1509 43.0288 42.388 44.4847 40.912L46.6683 38.6984C47.4084 37.9481 47.8159 36.9511 47.8159 35.8901C47.8159 34.8292 47.4084 33.8315 46.6683 33.0819L43.3641 29.7315ZM44.8869 36.8919L42.7027 39.1061C41.0486 40.7823 38.5094 41.0743 36.5272 39.8152C29.9089 35.6114 24.2189 29.8433 20.0722 23.1339C18.8302 21.1245 19.1176 18.5504 20.7717 16.8735L22.9559 14.6592C23.2197 14.3918 23.5707 14.2442 23.944 14.2442C24.318 14.2442 24.6684 14.3918 24.9328 14.6592L28.2377 18.0089C28.783 18.5617 28.783 19.4609 28.2377 20.0137L26.6604 21.6127C25.5765 22.7115 25.3875 24.399 26.2018 25.716C28.1623 28.8874 30.8524 31.6139 33.9808 33.6014C35.2799 34.4262 36.9445 34.2353 38.0278 33.1364L39.6051 31.5374C40.1504 30.9847 41.0374 30.9853 41.5827 31.5374L44.8869 34.8878C45.1507 35.1552 45.2964 35.511 45.2964 35.8901C45.2964 36.2686 45.1507 36.6245 44.8869 36.8919Z" fill="#1B75BC"/>
</svg>
