<svg width="82" height="82" viewBox="0 0 82 82" fill="none" xmlns="http://www.w3.org/2000/svg">
<g clip-path="url(#clip0)">
<path d="M14.4701 53.0582H24.1179V0H0V53.0582H14.4701ZM20.8956 40.1896H3.22234V33.7641H20.8956V40.1896ZM20.8956 3.22234V30.5434H3.22234V3.22234H20.8956ZM3.22234 43.412H20.8956V49.8374H3.22234V43.412Z" fill="#1B75BC"/>
<path d="M43.4115 53.0582H53.0593V0H28.9414V53.0582H43.4115ZM49.837 40.1896H32.1622V33.7641H49.837V40.1896ZM49.837 3.22234V30.5434H32.1622V3.22234H49.837ZM32.1622 43.412H49.837V49.8374H32.1622V43.412Z" fill="#1B75BC"/>
<path d="M72.3529 53.0582H82.0008V0H57.8828V53.0582H72.3529ZM78.7784 40.1896H61.1052V33.7641H78.7784V40.1896ZM78.7784 3.22234V30.5434H61.1052V3.22234H78.7784ZM61.1052 43.412H78.7784V49.8374H61.1052V43.412Z" fill="#1B75BC"/>
<path d="M12.0527 9.64746H12.0639C12.3794 9.64746 12.6918 9.7096 12.9833 9.83033C13.2747 9.95106 13.5396 10.128 13.7627 10.3511C13.9857 10.5742 14.1627 10.839 14.2834 11.1305C14.4041 11.4219 14.4663 11.7343 14.4663 12.0498V12.061C14.4663 12.6982 14.2132 13.3092 13.7627 13.7597C13.3121 14.2103 12.7011 14.4634 12.0639 14.4634H12.0527C11.4156 14.4634 10.8045 14.2103 10.354 13.7597C9.90349 13.3092 9.65039 12.6982 9.65039 12.061V12.0498C9.65039 11.7343 9.71253 11.4219 9.83326 11.1305C9.95399 10.839 10.1309 10.5742 10.354 10.3511C10.5771 10.128 10.8419 9.95106 11.1334 9.83033C11.4249 9.7096 11.7373 9.64746 12.0527 9.64746Z" fill="#1B75BC"/>
<path d="M12.0527 19.2939H12.0639C12.7011 19.2939 13.3121 19.547 13.7627 19.9976C14.2132 20.4481 14.4663 21.0591 14.4663 21.6963V21.7075C14.4663 22.3446 14.2132 22.9557 13.7627 23.4062C13.3121 23.8567 12.7011 24.1098 12.0639 24.1098H12.0527C11.4156 24.1098 10.8045 23.8567 10.354 23.4062C9.90349 22.9557 9.65039 22.3446 9.65039 21.7075V21.6963C9.65039 21.0591 9.90349 20.4481 10.354 19.9976C10.8045 19.547 11.4156 19.2939 12.0527 19.2939Z" fill="#1B75BC"/>
<path d="M41 9.64746C41.3155 9.64746 41.6279 9.7096 41.9193 9.83033C42.2108 9.95106 42.4756 10.128 42.6987 10.3511C42.9218 10.5742 43.0987 10.839 43.2195 11.1305C43.3402 11.4219 43.4023 11.7343 43.4023 12.0498V12.061C43.4023 12.6982 43.1492 13.3092 42.6987 13.7597C42.2482 14.2103 41.6371 14.4634 41 14.4634C40.3629 14.4634 39.7518 14.2103 39.3013 13.7597C38.8508 13.3092 38.5977 12.6982 38.5977 12.061V12.0498C38.5977 11.7343 38.6598 11.4219 38.7805 11.1305C38.9013 10.839 39.0782 10.5742 39.3013 10.3511C39.5244 10.128 39.7892 9.95106 40.0807 9.83033C40.3721 9.7096 40.6845 9.64746 41 9.64746Z" fill="#1B75BC"/>
<path d="M41 19.2939C41.6371 19.2939 42.2482 19.547 42.6987 19.9976C43.1492 20.4481 43.4023 21.0591 43.4023 21.6963V21.7075C43.4023 22.3446 43.1492 22.9557 42.6987 23.4062C42.2482 23.8567 41.6371 24.1098 41 24.1098C40.3629 24.1098 39.7518 23.8567 39.3013 23.4062C38.8508 22.9557 38.5977 22.3446 38.5977 21.7075V21.6963C38.5977 21.0591 38.8508 20.4481 39.3013 19.9976C39.7518 19.547 40.3629 19.2939 41 19.2939Z" fill="#1B75BC"/>
<path d="M69.9355 9.64746H69.9468C70.2622 9.64746 70.5746 9.7096 70.8661 9.83033C71.1576 9.95106 71.4224 10.128 71.6455 10.3511C71.8685 10.5742 72.0455 10.839 72.1662 11.1305C72.287 11.4219 72.3491 11.7343 72.3491 12.0498V12.061C72.3491 12.6982 72.096 13.3092 71.6455 13.7597C71.1949 14.2103 70.5839 14.4634 69.9468 14.4634H69.9355C69.2984 14.4634 68.6874 14.2103 68.2368 13.7597C67.7863 13.3092 67.5332 12.6982 67.5332 12.061V12.0498C67.5332 11.7343 67.5953 11.4219 67.7161 11.1305C67.8368 10.839 68.0138 10.5742 68.2368 10.3511C68.4599 10.128 68.7247 9.95106 69.0162 9.83033C69.3077 9.7096 69.6201 9.64746 69.9355 9.64746Z" fill="#1B75BC"/>
<path d="M69.9355 19.2939H69.9468C70.5839 19.2939 71.1949 19.547 71.6455 19.9976C72.096 20.4481 72.3491 21.0591 72.3491 21.6963V21.7075C72.3491 22.3446 72.096 22.9557 71.6455 23.4062C71.1949 23.8567 70.5839 24.1098 69.9468 24.1098H69.9355C69.2984 24.1098 68.6874 23.8567 68.2368 23.4062C67.7863 22.9557 67.5332 22.3446 67.5332 21.7075V21.6963C67.5332 21.0591 67.7863 20.4481 68.2368 19.9976C68.6874 19.547 69.2984 19.2939 69.9355 19.2939Z" fill="#1B75BC"/>
<path d="M13.652 70.3547V50.8076H10.4297V70.3547H13.652Z" fill="#1B75BC"/>
<path d="M35.5548 73.2354H18.2051V76.4577H35.5548V73.2354Z" fill="#1B75BC"/>
<path d="M64.3829 73.2354H47.0332V76.4577H64.3829V73.2354Z" fill="#1B75BC"/>
<path d="M42.611 70.3547V50.8076H39.3887V70.3547H42.611Z" fill="#1B75BC"/>
<path d="M71.57 70.3547V50.8076H68.3477V70.3547H71.57Z" fill="#1B75BC"/>
<path d="M4.9043 74.8443C4.9043 73.4289 5.32402 72.0454 6.11037 70.8686C6.89673 69.6918 8.01441 68.7746 9.32205 68.233C10.6297 67.6915 12.0686 67.5499 13.4567 67.8261C14.8448 68.1023 16.1199 68.784 17.1205 69.7849C18.1212 70.7858 18.8026 72.061 19.0786 73.4492C19.3545 74.8374 19.2125 76.2762 18.6707 77.5838C18.1288 78.8913 17.2114 80.0087 16.0345 80.7948C14.8575 81.5809 13.4738 82.0003 12.0585 82C11.1188 82 10.1884 81.8149 9.32032 81.4553C8.45223 81.0957 7.66349 80.5686 6.99914 79.9041C6.33479 79.2396 5.80785 78.4507 5.44842 77.5825C5.08898 76.7144 4.90409 75.7839 4.9043 74.8443ZM12.0585 78.7969C12.8393 78.7969 13.6026 78.5654 14.2518 78.1316C14.901 77.6978 15.407 77.0812 15.7058 76.3598C16.0046 75.6385 16.0828 74.8447 15.9305 74.0789C15.7781 73.3131 15.4021 72.6096 14.85 72.0575C14.2979 71.5054 13.5945 71.1294 12.8287 70.9771C12.0629 70.8247 11.2691 70.9029 10.5477 71.2017C9.82632 71.5005 9.20975 72.0065 8.77596 72.6558C8.34216 73.305 8.11063 74.0683 8.11063 74.8491C8.11063 75.8961 8.52656 76.9002 9.26692 77.6406C10.0073 78.381 11.0114 78.7969 12.0585 78.7969Z" fill="#1B75BC"/>
<path d="M33.8457 74.8443C33.8457 73.4289 34.2654 72.0454 35.0518 70.8686C35.8381 69.6918 36.9558 68.7746 38.2635 68.233C39.5711 67.6915 41.01 67.5499 42.3981 67.8261C43.7862 68.1023 45.0613 68.784 46.0619 69.7849C47.0626 70.7858 47.744 72.061 48.02 73.4492C48.2959 74.8374 48.154 76.2762 47.6121 77.5838C47.0703 78.8913 46.1528 80.0087 44.9759 80.7948C43.7989 81.5809 42.4152 82.0003 40.9999 82C40.0602 82 39.1298 81.8149 38.2617 81.4553C37.3936 81.0957 36.6049 80.5686 35.9405 79.9041C35.2762 79.2396 34.7493 78.4507 34.3898 77.5825C34.0304 76.7144 33.8455 75.7839 33.8457 74.8443ZM40.9999 78.7969C41.7807 78.7969 42.544 78.5654 43.1932 78.1316C43.8424 77.6978 44.3484 77.0812 44.6472 76.3598C44.946 75.6385 45.0242 74.8447 44.8719 74.0789C44.7195 73.3131 44.3436 72.6096 43.7914 72.0575C43.2393 71.5054 42.5359 71.1294 41.7701 70.9771C41.0043 70.8247 40.2105 70.9029 39.4891 71.2017C38.7677 71.5005 38.1512 72.0065 37.7174 72.6558C37.2836 73.305 37.052 74.0683 37.052 74.8491C37.052 75.8961 37.468 76.9002 38.2083 77.6406C38.9487 78.381 39.9528 78.7969 40.9999 78.7969Z" fill="#1B75BC"/>
<path d="M62.7813 74.8443C62.7813 73.4292 63.2008 72.0459 63.9869 70.8692C64.773 69.6926 65.8903 68.7754 67.1975 68.2336C68.5048 67.6919 69.9433 67.5499 71.3313 67.8256C72.7192 68.1013 73.9943 68.7824 74.9952 69.7827C75.9962 70.7829 76.6781 72.0575 76.9547 73.4453C77.2314 74.8331 77.0904 76.2717 76.5495 77.5793C76.0086 78.887 75.0922 80.0049 73.9161 80.7917C72.7399 81.5786 71.3569 81.9991 69.9418 82C69.0017 82.0009 68.0705 81.8164 67.2017 81.4571C66.3329 81.0979 65.5434 80.5709 64.8784 79.9063C64.2133 79.2417 63.6858 78.4526 63.326 77.584C62.9661 76.7154 62.781 75.7844 62.7813 74.8443ZM69.9418 78.7969C70.7226 78.7969 71.4859 78.5654 72.1351 78.1316C72.7844 77.6978 73.2904 77.0812 73.5892 76.3598C73.888 75.6385 73.9662 74.8447 73.8138 74.0789C73.6615 73.3131 73.2855 72.6096 72.7334 72.0575C72.1813 71.5054 71.4778 71.1294 70.712 70.9771C69.9462 70.8247 69.1524 70.9029 68.4311 71.2017C67.7097 71.5005 67.0931 72.0065 66.6593 72.6558C66.2255 73.305 65.994 74.0683 65.994 74.8491C65.994 75.8961 66.4099 76.9003 67.1503 77.6406C67.8906 78.381 68.8948 78.7969 69.9418 78.7969Z" fill="#1B75BC"/>
</g>
<defs>
<clipPath id="clip0">
<rect width="82" height="82" fill="white"/>
</clipPath>
</defs>
</svg>
