<svg width="81" height="72" viewBox="0 0 81 72" fill="none" xmlns="http://www.w3.org/2000/svg">
<path d="M53.6933 2.40297H50.2684C49.9626 2.40297 49.6692 2.28091 49.453 2.06365C49.2367 1.84638 49.1152 1.55171 49.1152 1.24445C49.1152 0.937196 49.2367 0.642523 49.453 0.425259C49.6692 0.207995 49.9626 0.0859375 50.2684 0.0859375H53.6933C53.9991 0.0859375 54.2924 0.207995 54.5087 0.425259C54.7249 0.642523 54.8464 0.937196 54.8464 1.24445C54.8464 1.55171 54.7249 1.84638 54.5087 2.06365C54.2924 2.28091 53.9991 2.40297 53.6933 2.40297Z" fill="#1B75BC"/>
<path d="M76.685 25.5733H4.31309C3.20634 25.5721 2.14527 25.1298 1.36268 24.3436C0.580088 23.5574 0.139893 22.4914 0.138672 21.3795V4.27977C0.139893 3.16787 0.580088 2.10187 1.36268 1.31564C2.14527 0.529407 3.20634 0.0871641 4.31309 0.0859375H30.7664C31.0723 0.0859375 31.3656 0.207995 31.5818 0.425259C31.7981 0.642523 31.9196 0.937196 31.9196 1.24445C31.9196 1.55171 31.7981 1.84638 31.5818 2.06365C31.3656 2.28091 31.0723 2.40297 30.7664 2.40297H4.31309C3.81782 2.40358 3.34301 2.60151 2.99281 2.95335C2.6426 3.30518 2.44559 3.7822 2.44498 4.27977V21.3795C2.44559 21.877 2.6426 22.3541 2.99281 22.7059C3.34301 23.0577 3.81782 23.2557 4.31309 23.2563H76.685C77.1802 23.2557 77.655 23.0577 78.0052 22.7059C78.3555 22.3541 78.5525 21.877 78.5531 21.3795V4.27977C78.5525 3.7822 78.3555 3.30518 78.0052 2.95335C77.655 2.60151 77.1802 2.40358 76.685 2.40297H61.7632C61.4573 2.40297 61.164 2.28091 60.9478 2.06365C60.7315 1.84638 60.61 1.55171 60.61 1.24445C60.61 0.937196 60.7315 0.642523 60.9478 0.425259C61.164 0.207995 61.4573 0.0859375 61.7632 0.0859375H76.685C77.7917 0.0871641 78.8528 0.529407 79.6354 1.31564C80.418 2.10187 80.8582 3.16787 80.8594 4.27977V21.3795C80.8582 22.4914 80.418 23.5574 79.6354 24.3436C78.8528 25.1298 77.7917 25.5721 76.685 25.5733Z" fill="#1B75BC"/>
<path d="M42.1963 2.40297H38.8407C38.5348 2.40297 38.2415 2.28091 38.0253 2.06365C37.809 1.84638 37.6875 1.55171 37.6875 1.24445C37.6875 0.937196 37.809 0.642523 38.0253 0.425259C38.2415 0.207995 38.5348 0.0859375 38.8407 0.0859375H42.1963C42.5022 0.0859375 42.7955 0.207995 43.0117 0.425259C43.228 0.642523 43.3495 0.937196 43.3495 1.24445C43.3495 1.55171 43.228 1.84638 43.0117 2.06365C42.7955 2.28091 42.5022 2.40297 42.1963 2.40297Z" fill="#1B75BC"/>
<path d="M67.9222 18.7074C66.7652 18.7074 65.6342 18.3628 64.6722 17.717C63.7101 17.0712 62.9603 16.1533 62.5176 15.0794C62.0748 14.0055 61.959 12.8238 62.1847 11.6837C62.4104 10.5437 62.9675 9.49644 63.7857 8.67451C64.6038 7.85257 65.6462 7.29283 66.7809 7.06606C67.9157 6.83928 69.092 6.95567 70.1609 7.4005C71.2298 7.84533 72.1435 8.59862 72.7863 9.56511C73.4291 10.5316 73.7721 11.6679 73.7721 12.8303C73.7703 14.3884 73.1534 15.8822 72.0567 16.984C70.96 18.0858 69.4731 18.7056 67.9222 18.7074ZM67.9222 9.27016C67.2213 9.27016 66.5362 9.47896 65.9535 9.87015C65.3707 10.2613 64.9165 10.8174 64.6483 11.4679C64.3801 12.1184 64.3099 12.8342 64.4467 13.5248C64.5834 14.2154 64.9209 14.8498 65.4165 15.3477C65.9121 15.8456 66.5435 16.1846 67.2309 16.322C67.9183 16.4594 68.6308 16.3889 69.2783 16.1194C69.9258 15.85 70.4793 15.3936 70.8686 14.8082C71.258 14.2227 71.4658 13.5344 71.4658 12.8303C71.4646 11.8865 71.0909 10.9816 70.4266 10.3143C69.7623 9.64687 68.8617 9.27139 67.9222 9.27016Z" fill="#1B75BC"/>
<path d="M51.6683 18.7074C50.5113 18.7074 49.3803 18.3628 48.4183 17.717C47.4562 17.0712 46.7064 16.1533 46.2637 15.0794C45.8209 14.0055 45.705 12.8238 45.9308 11.6837C46.1565 10.5437 46.7136 9.49644 47.5318 8.67451C48.3499 7.85257 49.3923 7.29283 50.527 7.06606C51.6618 6.83928 52.838 6.95567 53.907 7.4005C54.9759 7.84533 55.8896 8.59862 56.5324 9.56511C57.1752 10.5316 57.5183 11.6679 57.5183 12.8303C57.5164 14.3884 56.8995 15.8822 55.8028 16.984C54.7061 18.0858 53.2192 18.7056 51.6683 18.7074ZM51.6683 9.27016C50.9674 9.27016 50.2823 9.47896 49.6996 9.87015C49.1168 10.2613 48.6626 10.8174 48.3944 11.4679C48.1262 12.1184 48.056 12.8342 48.1928 13.5248C48.3295 14.2154 48.667 14.8498 49.1626 15.3477C49.6582 15.8456 50.2896 16.1846 50.977 16.322C51.6644 16.4594 52.3769 16.3889 53.0244 16.1194C53.6719 15.85 54.2254 15.3936 54.6147 14.8082C55.0041 14.2227 55.2119 13.5344 55.2119 12.8303C55.2107 11.8865 54.837 10.9816 54.1727 10.3143C53.5084 9.64687 52.6078 9.27139 51.6683 9.27016Z" fill="#1B75BC"/>
<path d="M39.5148 13.9879H8.37972C8.07388 13.9879 7.78057 13.8659 7.56431 13.6486C7.34806 13.4313 7.22656 13.1367 7.22656 12.8294C7.22656 12.5222 7.34806 12.2275 7.56431 12.0102C7.78057 11.793 8.07388 11.6709 8.37972 11.6709H39.5148C39.8207 11.6709 40.114 11.793 40.3302 12.0102C40.5465 12.2275 40.668 12.5222 40.668 12.8294C40.668 13.1367 40.5465 13.4313 40.3302 13.6486C40.114 13.8659 39.8207 13.9879 39.5148 13.9879Z" fill="#1B75BC"/>
<path d="M76.6792 55.6944H4.31885C3.21057 55.6932 2.14804 55.2503 1.36437 54.463C0.580695 53.6757 0.139893 52.6082 0.138672 51.4948V34.4067C0.139893 33.2932 0.580695 32.2257 1.36437 31.4384C2.14804 30.6511 3.21057 30.2083 4.31885 30.207H76.6792C77.7875 30.2083 78.85 30.6511 79.6337 31.4384C80.4174 32.2257 80.8582 33.2932 80.8594 34.4067V51.4948C80.8582 52.6082 80.4174 53.6757 79.6337 54.463C78.85 55.2503 77.7875 55.6932 76.6792 55.6944ZM4.31885 32.5241C3.82206 32.5247 3.34578 32.7232 2.9945 33.0761C2.64321 33.4291 2.44559 33.9075 2.44498 34.4067V51.4948C2.44559 51.9939 2.64321 52.4724 2.9945 52.8253C3.34578 53.1782 3.82206 53.3768 4.31885 53.3774H76.6792C77.176 53.3768 77.6523 53.1782 78.0036 52.8253C78.3548 52.4724 78.5525 51.9939 78.5531 51.4948V34.4067C78.5525 33.9075 78.3548 33.4291 78.0036 33.0761C77.6523 32.7232 77.176 32.5247 76.6792 32.5241H4.31885Z" fill="#1B75BC"/>
<path d="M67.9222 48.8285C66.7652 48.8285 65.6342 48.4839 64.6722 47.8381C63.7101 47.1923 62.9603 46.2744 62.5176 45.2005C62.0748 44.1266 61.959 42.9449 62.1847 41.8048C62.4104 40.6647 62.9675 39.6175 63.7857 38.7956C64.6038 37.9737 65.6462 37.4139 66.7809 37.1871C67.9157 36.9604 69.092 37.0768 70.1609 37.5216C71.2298 37.9664 72.1435 38.7197 72.7863 39.6862C73.4291 40.6527 73.7721 41.789 73.7721 42.9514C73.7703 44.5095 73.1534 46.0033 72.0567 47.1051C70.96 48.2069 69.4731 48.8267 67.9222 48.8285ZM67.9222 39.3913C67.2213 39.3913 66.5362 39.6001 65.9535 39.9912C65.3707 40.3824 64.9165 40.9385 64.6483 41.589C64.3801 42.2395 64.3099 42.9553 64.4467 43.6459C64.5834 44.3365 64.9209 44.9709 65.4165 45.4688C65.9121 45.9667 66.5435 46.3057 67.2309 46.4431C67.9183 46.5805 68.6308 46.51 69.2783 46.2405C69.9258 45.9711 70.4793 45.5147 70.8686 44.9293C71.258 44.3438 71.4658 43.6555 71.4658 42.9514C71.4646 42.0076 71.0909 41.1027 70.4266 40.4353C69.7623 39.768 68.8617 39.3925 67.9222 39.3913Z" fill="#1B75BC"/>
<path d="M51.6683 48.8285C50.5113 48.8285 49.3803 48.4839 48.4183 47.8381C47.4562 47.1923 46.7064 46.2744 46.2637 45.2005C45.8209 44.1266 45.705 42.9449 45.9308 41.8048C46.1565 40.6647 46.7136 39.6175 47.5318 38.7956C48.3499 37.9737 49.3923 37.4139 50.527 37.1871C51.6618 36.9604 52.838 37.0768 53.907 37.5216C54.9759 37.9664 55.8896 38.7197 56.5324 39.6862C57.1752 40.6527 57.5183 41.789 57.5183 42.9514C57.5164 44.5095 56.8995 46.0033 55.8028 47.1051C54.7061 48.2069 53.2192 48.8267 51.6683 48.8285ZM51.6683 39.3913C50.9674 39.3913 50.2823 39.6001 49.6996 39.9912C49.1168 40.3824 48.6626 40.9385 48.3944 41.589C48.1262 42.2395 48.056 42.9553 48.1928 43.6459C48.3295 44.3365 48.667 44.9709 49.1626 45.4688C49.6582 45.9667 50.2896 46.3057 50.977 46.4431C51.6644 46.5805 52.3769 46.51 53.0244 46.2405C53.6719 45.9711 54.2254 45.5147 54.6147 44.9293C55.0041 44.3438 55.2119 43.6555 55.2119 42.9514C55.2107 42.0076 54.837 41.1027 54.1727 40.4353C53.5084 39.768 52.6078 39.3925 51.6683 39.3913Z" fill="#1B75BC"/>
<path d="M39.5148 44.11H8.37972C8.07388 44.11 7.78057 43.9879 7.56431 43.7707C7.34806 43.5534 7.22656 43.2587 7.22656 42.9515C7.22656 42.6442 7.34806 42.3496 7.56431 42.1323C7.78057 41.915 8.07388 41.793 8.37972 41.793H39.5148C39.8207 41.793 40.114 41.915 40.3302 42.1323C40.5465 42.3496 40.668 42.6442 40.668 42.9515C40.668 43.2587 40.5465 43.5534 40.3302 43.7707C40.114 43.9879 39.8207 44.11 39.5148 44.11Z" fill="#1B75BC"/>
<path d="M40.4989 32.525C40.193 32.525 39.8997 32.4029 39.6835 32.1856C39.4672 31.9684 39.3457 31.6737 39.3457 31.3665V24.4154C39.3457 24.1081 39.4672 23.8134 39.6835 23.5962C39.8997 23.3789 40.193 23.2568 40.4989 23.2568C40.8047 23.2568 41.098 23.3789 41.3143 23.5962C41.5305 23.8134 41.652 24.1081 41.652 24.4154V31.3665C41.652 31.6737 41.5305 31.9684 41.3143 32.1856C41.098 32.4029 40.8047 32.525 40.4989 32.525Z" fill="#1B75BC"/>
<path d="M40.4989 64.341C40.193 64.341 39.8997 64.2189 39.6835 64.0017C39.4672 63.7844 39.3457 63.4897 39.3457 63.1825V54.5364C39.3457 54.2292 39.4672 53.9345 39.6835 53.7173C39.8997 53.5 40.193 53.3779 40.4989 53.3779C40.8047 53.3779 41.098 53.5 41.3143 53.7173C41.5305 53.9345 41.652 54.2292 41.652 54.5364V63.1825C41.652 63.4897 41.5305 63.7844 41.3143 64.0017C41.098 64.2189 40.8047 64.341 40.4989 64.341Z" fill="#1B75BC"/>
<path d="M46.158 71.9144H34.4246C34.1188 71.9144 33.8255 71.7924 33.6092 71.5751C33.393 71.3578 33.2715 71.0632 33.2715 70.7559V63.178C33.2715 62.8708 33.393 62.5761 33.6092 62.3589C33.8255 62.1416 34.1188 62.0195 34.4246 62.0195H46.158C46.4638 62.0195 46.7571 62.1416 46.9734 62.3589C47.1896 62.5761 47.3111 62.8708 47.3111 63.178V70.7559C47.3111 71.0632 47.1896 71.3578 46.9734 71.5751C46.7571 71.7924 46.4638 71.9144 46.158 71.9144ZM35.5778 69.5974H45.0048V64.3366H35.5778V69.5974Z" fill="#1B75BC"/>
<path d="M34.4278 68.1246H18.2352C17.9293 68.1246 17.636 68.0026 17.4198 67.7853C17.2035 67.5681 17.082 67.2734 17.082 66.9661C17.082 66.6589 17.2035 66.3642 17.4198 66.1469C17.636 65.9297 17.9293 65.8076 18.2352 65.8076H34.4278C34.7336 65.8076 35.0269 65.9297 35.2432 66.1469C35.4594 66.3642 35.5809 66.6589 35.5809 66.9661C35.5809 67.2734 35.4594 67.5681 35.2432 67.7853C35.0269 68.0026 34.7336 68.1246 34.4278 68.1246Z" fill="#1B75BC"/>
<path d="M62.7656 68.1246H46.5731C46.2672 68.1246 45.9739 68.0026 45.7577 67.7853C45.5414 67.5681 45.4199 67.2734 45.4199 66.9661C45.4199 66.6589 45.5414 66.3642 45.7577 66.1469C45.9739 65.9297 46.2672 65.8076 46.5731 65.8076H62.7656C63.0715 65.8076 63.3648 65.9297 63.581 66.1469C63.7973 66.3642 63.9188 66.6589 63.9188 66.9661C63.9188 67.2734 63.7973 67.5681 63.581 67.7853C63.3648 68.0026 63.0715 68.1246 62.7656 68.1246Z" fill="#1B75BC"/>
</svg>
